@startuml

abstract class Employee {
    - firstName: String
    - lastName: String
    - socialSecurityNumber: String

    {abstract} + getFirstName(): String
    {abstract} + setFirstName(firstName: String): void
    {abstract} + getLastName(): String
    {abstract} + setLastName(lastName: String): void
    {abstract} + getSocialSecurityNumber(): String
    {abstract} + setSocialSecurityNumber(socialSecurityNumber: String): void
    {abstract} + toString(): String
}

class SalariedEmployee {
    - weeklySalary: int
    + getWeeklySalary(): int
    + setWeeklySalary(weeklySalary: int): void
    + toString(): String
}

class HourlyEmployee {
    - wage: int
    - hoursWorked: int
    + getWage(): int
    + setWage(wage: int): void
    + getHoursWorked(): int
    + setHoursWorked(hoursWorked: int): void
    + toString(): String
}

class CommisionEmployee {
    - commissionRate: int
    - grossSales: int
    + getCommissionRate(): int
    + setCommissionRate(commissionRate: int): void
    + getGrossSales(): int
    + setGrossSales(grossSales: int): void
    + toString(): String
}

class BaseEmployee {
    - baseSalary: int
    + getBaseSalary(): int
    + setBaseSalary(baseSalary: int): void
    + toString(): String
}

Employee <|-- SalariedEmployee
Employee <|-- HourlyEmployee
Employee <|-- CommisionEmployee
Employee <|-- BaseEmployee

@enduml
